M48
METRIC,LZ,000.000
;FILE_FORMAT=3:3
;TYPE=PLATED
;Layer: PTH_Through
;EasyEDA v6.5.57, 2026-07-18 21:38:12
;dcf5173a947544ada239e91028589504,e348c271af94452cba638ad1145e7fe5,10
;Gerber Generator version 0.2
;Holesize 1 = 0.600 mm
T01C0.600
;Holesize 2 = 0.840 mm
T02C0.840
;Holesize 3 = 0.889 mm
T03C0.889
;Holesize 4 = 0.901 mm
T04C0.901
;Holesize 5 = 0.915 mm
T05C0.915
;Holesize 6 = 1.000 mm
T06C1.000
%
G05
G90
T01
X055752Y080517
X058292Y080517
X060832Y080517
X063372Y080517
T02
X100584Y058293
X100584Y060833
X100584Y063373
T03
X092964Y023365G85X092964Y023371
X092964Y025905G85X092964Y025911
X092964Y028445G85X092964Y028451
X092964Y030985G85X092964Y030991
T04
X012946Y060830G85X012946Y060836
X012946Y058290G85X012946Y058296
X012946Y055750G85X012946Y055756
X012946Y053210G85X012946Y053216
X012946Y050670G85X012946Y050676
X012946Y048130G85X012946Y048136
X012946Y045590G85X012946Y045596
X012946Y043050G85X012946Y043056
X012946Y040510G85X012946Y040516
X012946Y037970G85X012946Y037976
X012946Y035430G85X012946Y035436
X012946Y032890G85X012946Y032896
X012895Y030350G85X012895Y030356
X012946Y081150G85X012946Y081156
X012946Y078613G85X012946Y078613
X012946Y076073G85X012946Y076073
X012946Y073533G85X012946Y073533
X012946Y070993G85X012946Y070993
X012946Y068453G85X012946Y068453
X012946Y065913G85X012946Y065913
X012946Y063373G85X012946Y063373
X038355Y063370G85X038355Y063376
X038355Y065910G85X038355Y065916
X038355Y068450G85X038355Y068456
X038355Y070990G85X038355Y070996
X038355Y073530G85X038355Y073536
X038355Y076070G85X038355Y076076
X038355Y078610G85X038355Y078616
X038355Y081150G85X038355Y081156
X038406Y030350G85X038406Y030356
X038355Y032890G85X038355Y032896
X038355Y035430G85X038355Y035436
X038355Y037970G85X038355Y037976
X038355Y040510G85X038355Y040516
X038355Y043050G85X038355Y043056
X038355Y045590G85X038355Y045596
X038355Y048130G85X038355Y048136
X038355Y050670G85X038355Y050676
X038355Y053210G85X038355Y053216
X038355Y055750G85X038355Y055756
X038355Y058290G85X038355Y058296
X038355Y060830G85X038355Y060836
T05
X053213Y066040
X053213Y063500
X053213Y060960
X053213Y058420
X053213Y055880
X087122Y066548
X087122Y064008
X087122Y061468
X087122Y058928
X087122Y056388
X087122Y053848
T06
X063627Y043817
X061087Y043817
X058547Y043817
X056007Y043814
X088751Y101457
X090751Y101457
X092751Y101457
X094751Y101457
X088351Y074057
X086351Y074057
M30
