G04 Layer: TopLayer*
G04 EasyEDA v6.5.57, 2026-07-18 21:38:12*
G04 dcf5173a947544ada239e91028589504,e348c271af94452cba638ad1145e7fe5,10*
G04 Gerber Generator version 0.2*
G04 Scale: 100 percent, Rotated: No, Reflected: No *
G04 Dimensions in millimeters *
G04 leading zeros omitted , absolute positions ,4 integer and 5 decimal *
%FSLAX45Y45*%
%MOMM*%

%ADD10C,0.2540*%
%ADD11R,1.5748X1.5748*%
%ADD12C,1.5748*%
%ADD13R,1.5000X2.0000*%
%ADD14C,1.6500*%
%ADD15C,1.2600*%
%ADD16C,1.5240*%
%ADD17C,0.0136*%
%ADD18R,1.5240X1.5240*%
%ADD19C,3.2000*%
%ADD20C,1.5000*%
%ADD21R,1.5000X1.5000*%

%LPD*%
D10*
X8712202Y5384802D02*
G01*
X8608037Y5384802D01*
X8608037Y5384802D02*
G01*
X8329983Y5662856D01*
X5396156Y5662856D01*
X5321302Y5588002D01*
X8764297Y5384802D02*
G01*
X8712202Y5384802D01*
X8764297Y5384802D02*
G01*
X8816367Y5384802D01*
X8816367Y5384802D02*
G01*
X9260867Y5829302D01*
X10058402Y5829302D01*
X1294615Y7861302D02*
G01*
X1177978Y7744665D01*
X1177978Y7310198D01*
X1261874Y7226302D01*
X1326796Y7226302D01*
X2596796Y5956302D01*
X4953002Y5956302D01*
X5321302Y5588002D01*
X8712202Y5892802D02*
G01*
X5524502Y5892802D01*
X5321302Y6096002D01*
X1294615Y4051302D02*
G01*
X1403784Y4160471D01*
X5887544Y4160471D01*
X6108702Y4381629D01*
X8712202Y6146802D02*
G01*
X8509002Y6350002D01*
X5321302Y6350002D01*
X1294615Y5321302D02*
G01*
X1948817Y4667100D01*
X6077231Y4667100D01*
X6362702Y4381629D01*
X5321302Y5842002D02*
G01*
X8509002Y5842002D01*
X8712202Y5638802D01*
X8712202Y5638802D02*
G01*
X9029702Y5956302D01*
X10062974Y5956302D01*
X10161932Y6055260D01*
X10161932Y6233772D01*
X10058402Y6337302D01*
X6083302Y8051802D02*
G01*
X5980330Y8051802D01*
X1294615Y8115302D02*
G01*
X1661949Y7747967D01*
X5753712Y7747967D01*
X5980330Y7974586D01*
X5980330Y8051802D01*
X3840584Y3035302D02*
G01*
X9105902Y3035302D01*
X9296402Y2844802D01*
X10058402Y6083302D02*
G01*
X10016340Y6041240D01*
X6295849Y6041240D01*
X6114087Y6223002D01*
X2424915Y6223002D01*
X1294615Y7353302D01*
X9296402Y2336802D02*
G01*
X9296402Y2443507D01*
X9296402Y2443507D02*
G01*
X9323072Y2443507D01*
X9407603Y2528039D01*
X9407603Y3141398D01*
X7100699Y5448302D01*
X2691615Y5448302D01*
X1294615Y6845302D01*
D11*
G01*
X9296400Y2336800D03*
D12*
G01*
X9296400Y2590800D03*
G01*
X9296400Y2844800D03*
G01*
X9296400Y3098800D03*
D13*
G01*
X5575300Y8051800D03*
G01*
X5829300Y8051800D03*
G01*
X6083300Y8051800D03*
G01*
X6337300Y8051800D03*
D14*
G01*
X6362700Y4381627D03*
G01*
X6108700Y4381627D03*
G01*
X5854700Y4381627D03*
G01*
X5600700Y4381372D03*
D15*
G01*
X10058400Y5829300D03*
G01*
X10058400Y6083300D03*
G01*
X10058400Y6337300D03*
D16*
G01*
X5321300Y6604000D03*
G01*
X5321300Y6350000D03*
G01*
X5321300Y6096000D03*
G01*
X5321300Y5842000D03*
G01*
X5321300Y5588000D03*
D18*
G01*
X8875090Y10145699D03*
D16*
G01*
X9075115Y10145699D03*
G01*
X9275114Y10145699D03*
G01*
X9475114Y10145699D03*
G01*
X8835110Y7405700D03*
G01*
X8635111Y7405700D03*
G01*
X8712200Y6654800D03*
G01*
X8712200Y6400800D03*
G01*
X8712200Y6146800D03*
G01*
X8712200Y5892800D03*
G01*
X8712200Y5638800D03*
D18*
G01*
X8712200Y5384800D03*
D19*
G01*
X7924800Y6564401D03*
G01*
X7912100Y5473700D03*
D20*
G01*
X1294612Y6083300D03*
G01*
X1294612Y5829300D03*
G01*
X1294612Y5575300D03*
G01*
X1294612Y5321300D03*
G01*
X1294612Y5067300D03*
G01*
X1294612Y4813300D03*
G01*
X1294612Y4559300D03*
G01*
X1294612Y4305300D03*
G01*
X1294612Y4051300D03*
G01*
X1294612Y3797300D03*
G01*
X1294612Y3543300D03*
G01*
X1294612Y3289300D03*
D21*
G01*
X1289507Y3035300D03*
D20*
G01*
X1294612Y8115300D03*
G01*
X1294612Y7861300D03*
G01*
X1294612Y7607300D03*
G01*
X1294612Y7353300D03*
G01*
X1294612Y7099300D03*
G01*
X1294612Y6845300D03*
G01*
X1294612Y6591300D03*
G01*
X1294612Y6337300D03*
G01*
X3835501Y6337300D03*
G01*
X3835501Y6591300D03*
G01*
X3835501Y6845300D03*
G01*
X3835501Y7099300D03*
G01*
X3835501Y7353300D03*
G01*
X3835501Y7607300D03*
G01*
X3835501Y7861300D03*
G01*
X3835501Y8115300D03*
D21*
G01*
X3840581Y3035300D03*
D20*
G01*
X3835501Y3289300D03*
G01*
X3835501Y3543300D03*
G01*
X3835501Y3797300D03*
G01*
X3835501Y4051300D03*
G01*
X3835501Y4305300D03*
G01*
X3835501Y4559300D03*
G01*
X3835501Y4813300D03*
G01*
X3835501Y5067300D03*
G01*
X3835501Y5321300D03*
G01*
X3835501Y5575300D03*
G01*
X3835501Y5829300D03*
G01*
X3835501Y6083300D03*
M02*
